<?xml version="1.0" encoding="UTF-8" standalone="no"?>
<svg width="120px" height="120px" viewBox="0 0 120 120" version="1.1" xmlns="http://www.w3.org/2000/svg" xmlns:xlink="http://www.w3.org/1999/xlink" xmlns:sketch="http://www.bohemiancoding.com/sketch/ns">
    <!-- Generator: Sketch 3.4.2 (15857) - http://www.bohemiancoding.com/sketch -->
    <title>alarm_inactive</title>
    <desc>Created with Sketch.</desc>
    <defs></defs>
    <g id="Page-1" stroke="none" stroke-width="1" fill="none" fill-rule="evenodd" sketch:type="MSPage">
        <g id="alarm_inactive" sketch:type="MSArtboardGroup" fill="#F7A349">
            <path d="M60.0020001,105.99984 C37.9431177,105.99984 20.0004,88.0591224 20.0004,66.0022401 C20.0004,43.9433577 37.9431177,26.00064 60.0020001,26.00064 C82.0588824,26.00064 100.0036,43.9433577 100.0036,66.0022401 C100.0036,88.0591224 82.0588824,105.99984 60.0020001,105.99984 L60.0020001,105.99984 L60.0020001,105.99984 L60.0020001,105.99984 Z M60.0020001,22.00048 C35.6950278,22.00048 16.00024,41.7012681 16.00024,66.0022401 C16.00024,77.0306812 20.0684027,87.1050842 26.7726709,94.8273931 L16.4802592,107.445898 L19.5783831,109.973999 L29.5527821,97.74951 C37.4570983,105.331813 48.1815273,110 60.0020001,110 C71.850474,110 82.5969039,105.309812 90.5092204,97.6915077 L100.477619,109.988 L103.587744,107.469899 L93.2853314,94.7613905 C99.9575983,87.0470819 104.00376,76.9986799 104.00376,66.0022401 C104.00376,41.7012681 84.298972,22.00048 60.0020001,22.00048 Z M37.8851154,14.0441618 L14.024161,38.0371215 L14.00016,38.0371215 L14.00016,30.0008 C14.00016,21.1804472 21.1784471,14.00016 30.0008,14.00016 L37.8851154,14.00016 L37.8851154,14.0441618 Z M41.8852754,10 L30.0008,10 C18.9543582,10 10,18.9543582 10,30.0008 L10,42.0372815 L15.6882275,42.0372815 L41.8852754,15.6922277 L41.8852754,10 Z M105.893836,38.0371215 L105.867835,38.0371215 L82.0028801,14.0441618 L82.0028801,14.00016 L89.8931957,14.00016 C98.7175487,14.00016 105.893836,21.1804472 105.893836,30.0008 L105.893836,38.0371215 Z M89.8931957,10 L78.0027201,10 L78.0027201,15.6922277 L104.203768,42.0372815 L109.893996,42.0372815 L109.893996,30.0008 C109.893996,18.9543582 100.937638,10 89.8931957,10 Z M58.0519221,66.0022401 L36.00104,66.0022401 L36.00104,70.0024001 L62.0520821,70.0024001 L62.0520821,34.00096 L58.0519221,34.00096 L58.0519221,66.0022401 Z" id="alarmTabOff-Copy" sketch:type="MSShapeGroup"></path>
        </g>
    </g>
</svg>