<?xml version="1.0" encoding="UTF-8" standalone="no"?>
<svg width="120px" height="120px" viewBox="0 0 120 120" version="1.1" xmlns="http://www.w3.org/2000/svg" xmlns:xlink="http://www.w3.org/1999/xlink" xmlns:sketch="http://www.bohemiancoding.com/sketch/ns">
    <!-- Generator: Sketch 3.4.2 (15857) - http://www.bohemiancoding.com/sketch -->
    <title>alarm_active</title>
    <desc>Created with Sketch.</desc>
    <defs></defs>
    <g id="Page-1" stroke="none" stroke-width="1" fill="none" fill-rule="evenodd" sketch:type="MSPage">
        <g id="alarm_active" sketch:type="MSArtboardGroup" fill="#F7A349">
            <path d="M41.8883777,10 L30.0040008,10 C18.9537908,10 10,18.9417884 10,30.0040008 L10,42.0264053 L15.6891378,42.0264053 L41.8883777,15.6811362 L41.8883777,10 Z M89.9079816,10 L78.0136027,10 L78.0136027,15.6811362 L104.218844,42.0264053 L109.911982,42.0264053 L109.911982,30.0040008 C109.911982,18.9417884 100.95219,10 89.9079816,10 Z M62.0404081,70.0120024 L35.9831966,70.0120024 L35.9831966,66.0112022 L58.0396079,66.0112022 L58.0396079,34.004801 L62.0404081,34.004801 L62.0404081,70.0120024 Z M60.010002,22.0024005 C35.7011402,22.0024005 16.0012002,41.7063413 16.0012002,66.0112022 C16.0012002,77.0334067 20.070014,87.1154231 26.7773555,94.8369674 L16.4812963,107.459492 L19.579916,109.979996 L29.5559112,97.7575515 C37.4634927,105.339068 48.1876375,110 60.010002,110 C71.8603721,110 82.6085217,105.319064 90.5221044,97.6975395 L100.492098,110 L103.602721,107.479496 L93.3006601,94.7769554 C99.9739948,87.0554111 104.018804,76.9933987 104.018804,66.0112022 C104.018804,41.7063413 84.3128626,22.0024005 60.010002,22.0024005 L60.010002,22.0024005 Z" id="alarm_F" sketch:type="MSShapeGroup"></path>
        </g>
    </g>
</svg>