<?xml version="1.0" encoding="UTF-8" standalone="no"?>
<svg width="479px" height="479px" viewBox="0 0 479 479" version="1.1" xmlns="http://www.w3.org/2000/svg" xmlns:xlink="http://www.w3.org/1999/xlink" xmlns:sketch="http://www.bohemiancoding.com/sketch/ns">
    <!-- Generator: Sketch 3.4.2 (15857) - http://www.bohemiancoding.com/sketch -->
    <title>BulbOff</title>
    <desc>Created with Sketch.</desc>
    <defs></defs>
    <g id="Page-1" stroke="none" stroke-width="1" fill="none" fill-rule="evenodd" sketch:type="MSPage">
        <g id="Artboard-1-Copy-3" sketch:type="MSArtboardGroup" transform="translate(-302.000000, -721.000000)">
            <g id="BulbOff" sketch:type="MSLayerGroup" transform="translate(302.000000, 721.000000)">
                <circle id="Oval-4" stroke="#F7A349" stroke-width="10" sketch:type="MSShapeGroup" cx="239.5" cy="239.5" r="239.5"></circle>
                <path d="M194.159852,270.542416 C205.593855,285.587146 197.491149,315.794224 202.824854,315.794223 L276.621689,315.794223 C282.764726,315.794223 273.270064,287.74201 284.428265,270.542416 C301.061224,244.903867 331.673469,218.476203 331.673469,180.836735 C331.673469,130.116704 290.556765,89 239.836735,89 C189.116704,89 148,130.116704 148,180.836735 C148,218.388288 175.3294,245.765521 194.159852,270.542416 Z M205.248588,265.488857 C215.158057,278.90713 212.060896,303.520832 212.060896,303.520832 L267.070625,303.520832 C267.070625,303.520832 263.708411,280.829035 273.378851,265.488857 C287.794083,242.622043 319.745278,214.369486 319.745278,180.79915 C319.745278,135.562366 283.794095,101.244898 239.836735,101.244898 C195.879375,101.244898 159.828412,135.562366 159.828412,180.79915 C159.828412,214.291077 188.928863,243.390545 205.248588,265.488857 Z M210.223489,358.387755 C209.671757,358.387755 209.22449,358.83808 209.22449,359.389806 L209.22449,369.630602 C209.22449,370.184019 209.6821,370.632653 210.223489,370.632653 L269.44998,370.632653 C270.001712,370.632653 270.44898,370.182329 270.44898,369.630602 L270.44898,359.389806 C270.44898,358.836389 269.991369,358.387755 269.44998,358.387755 L210.223489,358.387755 Z M197.971846,340.020408 C197.423839,340.020408 196.979592,340.470733 196.979592,341.02246 L196.979592,351.263255 C196.979592,351.816672 197.420329,352.265306 197.971846,352.265306 L281.701624,352.265306 C282.24963,352.265306 282.693878,351.814982 282.693878,351.263255 L282.693878,341.02246 C282.693878,340.469042 282.25314,340.020408 281.701624,340.020408 L197.971846,340.020408 Z M197.971846,321.653061 C197.423839,321.653061 196.979592,322.103386 196.979592,322.655113 L196.979592,332.895908 C196.979592,333.449325 197.420329,333.897959 197.971846,333.897959 L281.701624,333.897959 C282.24963,333.897959 282.693878,333.447635 282.693878,332.895908 L282.693878,322.655113 C282.693878,322.101695 282.25314,321.653061 281.701624,321.653061 L197.971846,321.653061 Z M227.591837,370.632653 L227.591837,387.496923 C227.591837,388.327049 228.272394,389 229.086918,389 L250.586551,389 C251.412262,389 252.081633,388.324513 252.081633,387.496923 L252.081633,370.632653 L227.591837,370.632653 Z" id="bulb_L-Copy-3" fill="#F7A349" sketch:type="MSShapeGroup"></path>
            </g>
        </g>
    </g>
</svg>