<?xml version="1.0" encoding="UTF-8" standalone="no"?>
<svg width="62px" height="100px" viewBox="0 0 62 100" version="1.1" xmlns="http://www.w3.org/2000/svg" xmlns:xlink="http://www.w3.org/1999/xlink" xmlns:sketch="http://www.bohemiancoding.com/sketch/ns">
    <!-- Generator: Sketch 3.4.2 (15857) - http://www.bohemiancoding.com/sketch -->
    <title>bulb_F Copy</title>
    <desc>Created with Sketch.</desc>
    <defs></defs>
    <g id="Page-1" stroke="none" stroke-width="1" fill="none" fill-rule="evenodd" sketch:type="MSPage">
        <g id="Artboard-1-Copy" sketch:type="MSArtboardGroup" transform="translate(-240.000000, -101.000000)" fill="#F7A349">
            <g id="bulbTabOn" sketch:type="MSLayerGroup" transform="translate(0.000000, 101.000000)">
                <path d="M255.386617,60.5141387 C259.197952,65.5290487 256.49705,75.5980748 258.274951,75.5980745 L282.873896,75.5980745 C284.921575,75.5980745 281.756688,66.2473366 285.476088,60.5141387 C291.020408,51.9679556 301.22449,43.1587342 301.22449,30.6122449 C301.22449,13.705568 287.518922,0 270.612245,0 C253.705568,0 240,13.705568 240,30.6122449 C240,43.1294295 249.1098,52.2551736 255.386617,60.5141387 Z M261.406307,89.7959184 C260.855047,89.7959184 260.408163,90.2483196 260.408163,90.8048615 L260.408163,92.8686079 C260.408163,93.4258318 260.853396,93.877551 261.406307,93.877551 L279.818183,93.877551 C280.369443,93.877551 280.816327,93.4251498 280.816327,92.8686079 L280.816327,90.8048615 C280.816327,90.2476376 280.371094,89.7959184 279.818183,89.7959184 L261.406307,89.7959184 Z M257.32665,83.6734694 C256.774299,83.6734694 256.326531,84.1258706 256.326531,84.6824125 L256.326531,86.7461589 C256.326531,87.3033828 256.77532,87.755102 257.32665,87.755102 L283.89784,87.755102 C284.45019,87.755102 284.897959,87.3027008 284.897959,86.7461589 L284.897959,84.6824125 C284.897959,84.1251886 284.44917,83.6734694 283.89784,83.6734694 L257.32665,83.6734694 Z M257.32665,77.5510204 C256.774299,77.5510204 256.326531,78.0034216 256.326531,78.5599636 L256.326531,80.6237099 C256.326531,81.1809338 256.77532,81.6326531 257.32665,81.6326531 L283.89784,81.6326531 C284.45019,81.6326531 284.897959,81.1802519 284.897959,80.6237099 L284.897959,78.5599636 C284.897959,78.0027396 284.44917,77.5510204 283.89784,77.5510204 L257.32665,77.5510204 Z M266.530612,93.877551 L266.530612,98.5022805 C266.530612,99.3294481 267.198647,100 268.027881,100 L273.196609,100 C274.023528,100 274.693878,99.3213982 274.693878,98.5022805 L274.693878,93.877551 L266.530612,93.877551 Z" id="bulb_F-Copy" sketch:type="MSShapeGroup"></path>
            </g>
        </g>
    </g>
</svg>