<?xml version="1.0" encoding="UTF-8" standalone="no"?>
<svg width="62px" height="100px" viewBox="0 0 62 100" version="1.1" xmlns="http://www.w3.org/2000/svg" xmlns:xlink="http://www.w3.org/1999/xlink" xmlns:sketch="http://www.bohemiancoding.com/sketch/ns">
    <!-- Generator: Sketch 3.4.2 (15857) - http://www.bohemiancoding.com/sketch -->
    <title>bulb_L</title>
    <desc>Created with Sketch.</desc>
    <defs></defs>
    <g id="Page-1" stroke="none" stroke-width="1" fill="none" fill-rule="evenodd" sketch:type="MSPage">
        <g id="Artboard-1-Copy-2" sketch:type="MSArtboardGroup" transform="translate(-239.000000, -101.000000)" fill="#FA9D24">
            <g id="bulbTabOff" sketch:type="MSLayerGroup" transform="translate(237.000000, 101.000000)">
                <path d="M17.3866174,60.5141387 C21.1979515,65.5290487 18.4970495,75.5980748 20.2749515,75.5980745 L44.8738964,75.5980745 C46.9215753,75.5980745 43.7566879,66.2473366 47.4760882,60.5141387 C53.0204082,51.9679556 63.2244898,43.1587342 63.2244898,30.6122449 C63.2244898,13.705568 49.5189217,0 32.6122449,0 C15.705568,0 2,13.705568 2,30.6122449 C2,43.1294295 11.1098,52.2551736 17.3866174,60.5141387 Z M21.0828626,58.829619 C24.3860188,63.3023765 23.3536321,71.506944 23.3536321,71.506944 L41.6902084,71.506944 C41.6902084,71.506944 40.5694702,63.9430117 43.7929504,58.829619 C48.5980277,51.2073476 59.2484261,41.7898288 59.2484261,30.5997167 C59.2484261,15.5207887 47.2646982,4.08163265 32.6122449,4.08163265 C17.9597916,4.08163265 5.94280406,15.5207887 5.94280406,30.5997167 C5.94280406,41.7636922 15.6429542,51.463515 21.0828626,58.829619 Z M23.4063066,89.7959184 C22.8550472,89.7959184 22.4081633,90.2483196 22.4081633,90.8048615 L22.4081633,92.8686079 C22.4081633,93.4258318 22.8533963,93.877551 23.4063066,93.877551 L41.8181832,93.877551 C42.3694426,93.877551 42.8163265,93.4251498 42.8163265,92.8686079 L42.8163265,90.8048615 C42.8163265,90.2476376 42.3710935,89.7959184 41.8181832,89.7959184 L23.4063066,89.7959184 Z M19.32665,83.6734694 C18.7742993,83.6734694 18.3265306,84.1258706 18.3265306,84.6824125 L18.3265306,86.7461589 C18.3265306,87.3033828 18.7753195,87.755102 19.32665,87.755102 L45.8978398,87.755102 C46.4501905,87.755102 46.8979592,87.3027008 46.8979592,86.7461589 L46.8979592,84.6824125 C46.8979592,84.1251886 46.4491703,83.6734694 45.8978398,83.6734694 L19.32665,83.6734694 Z M19.32665,77.5510204 C18.7742993,77.5510204 18.3265306,78.0034216 18.3265306,78.5599636 L18.3265306,80.6237099 C18.3265306,81.1809338 18.7753195,81.6326531 19.32665,81.6326531 L45.8978398,81.6326531 C46.4501905,81.6326531 46.8979592,81.1802519 46.8979592,80.6237099 L46.8979592,78.5599636 C46.8979592,78.0027396 46.4491703,77.5510204 45.8978398,77.5510204 L19.32665,77.5510204 Z M28.5306122,93.877551 L28.5306122,98.5022805 C28.5306122,99.3294481 29.1986465,100 30.0278809,100 L35.1966089,100 C36.0235275,100 36.6938776,99.3213982 36.6938776,98.5022805 L36.6938776,93.877551 L28.5306122,93.877551 Z" id="bulb_L" sketch:type="MSShapeGroup"></path>
            </g>
        </g>
    </g>
</svg>