<?xml version="1.0" encoding="UTF-8" standalone="no"?>
<svg width="120px" height="120px" viewBox="0 0 120 120" version="1.1" xmlns="http://www.w3.org/2000/svg" xmlns:xlink="http://www.w3.org/1999/xlink" xmlns:sketch="http://www.bohemiancoding.com/sketch/ns">
    <!-- Generator: Sketch 3.4.2 (15857) - http://www.bohemiancoding.com/sketch -->
    <title>light_inactive</title>
    <desc>Created with Sketch.</desc>
    <defs></defs>
    <g id="Page-1" stroke="none" stroke-width="1" fill="none" fill-rule="evenodd" sketch:type="MSPage">
        <g id="light_inactive" sketch:type="MSArtboardGroup" fill="#FA9D24">
            <path d="M44.3866174,70.5141387 C48.1979515,75.5290487 45.4970495,85.5980748 47.2749515,85.5980745 L71.8738964,85.5980745 C73.9215753,85.5980745 70.7566879,76.2473366 74.4760882,70.5141387 C80.0204082,61.9679556 90.2244898,53.1587342 90.2244898,40.6122449 C90.2244898,23.705568 76.5189217,10 59.6122449,10 C42.705568,10 29,23.705568 29,40.6122449 C29,53.1294295 38.1098,62.2551736 44.3866174,70.5141387 Z M48.0828626,68.829619 C51.3860188,73.3023765 50.3536321,81.506944 50.3536321,81.506944 L68.6902084,81.506944 C68.6902084,81.506944 67.5694702,73.9430117 70.7929504,68.829619 C75.5980277,61.2073476 86.2484261,51.7898288 86.2484261,40.5997167 C86.2484261,25.5207887 74.2646982,14.0816327 59.6122449,14.0816327 C44.9597916,14.0816327 32.9428041,25.5207887 32.9428041,40.5997167 C32.9428041,51.7636922 42.6429542,61.463515 48.0828626,68.829619 Z M50.4063066,99.7959184 C49.8550472,99.7959184 49.4081633,100.24832 49.4081633,100.804862 L49.4081633,102.868608 C49.4081633,103.425832 49.8533963,103.877551 50.4063066,103.877551 L68.8181832,103.877551 C69.3694426,103.877551 69.8163265,103.42515 69.8163265,102.868608 L69.8163265,100.804862 C69.8163265,100.247638 69.3710935,99.7959184 68.8181832,99.7959184 L50.4063066,99.7959184 Z M46.32665,93.6734694 C45.7742993,93.6734694 45.3265306,94.1258706 45.3265306,94.6824125 L45.3265306,96.7461589 C45.3265306,97.3033828 45.7753195,97.755102 46.32665,97.755102 L72.8978398,97.755102 C73.4501905,97.755102 73.8979592,97.3027008 73.8979592,96.7461589 L73.8979592,94.6824125 C73.8979592,94.1251886 73.4491703,93.6734694 72.8978398,93.6734694 L46.32665,93.6734694 Z M46.32665,87.5510204 C45.7742993,87.5510204 45.3265306,88.0034216 45.3265306,88.5599636 L45.3265306,90.6237099 C45.3265306,91.1809338 45.7753195,91.6326531 46.32665,91.6326531 L72.8978398,91.6326531 C73.4501905,91.6326531 73.8979592,91.1802519 73.8979592,90.6237099 L73.8979592,88.5599636 C73.8979592,88.0027396 73.4491703,87.5510204 72.8978398,87.5510204 L46.32665,87.5510204 Z M55.5306122,103.877551 L55.5306122,108.50228 C55.5306122,109.329448 56.1986465,110 57.0278809,110 L62.1966089,110 C63.0235275,110 63.6938776,109.321398 63.6938776,108.50228 L63.6938776,103.877551 L55.5306122,103.877551 Z" id="bulb_L" sketch:type="MSShapeGroup"></path>
        </g>
    </g>
</svg>